Coordinates
version=1
nRows=8
nColumns=46
inDegrees=yes

Units are S.I. units (second, meters, Newtons, ...)
Angles are in degrees.

endheader
time	pelvis_tilt	pelvis_list	pelvis_rotation	pelvis_tx	pelvis_ty	pelvis_tz	bb_angle	bb_tx	bb_ty	bb_tz	hip_flexion_r	hip_adduction_r	hip_rotation_r	knee_angle_r	knee_angle_r_beta	ankle_angle_r	subtalar_angle_r	mtp_angle_r	crank_angle_r	hip_flexion_l	hip_adduction_l	hip_rotation_l	knee_angle_l	knee_angle_l_beta	ankle_angle_l	subtalar_angle_l	mtp_angle_l	crank_angle_l	lumbar_extension	lumbar_bending	lumbar_rotation	arm_flex_r	arm_add_r	arm_rot_r	elbow_flex_r	pro_sup_r	wrist_flex_r	wrist_dev_r	arm_flex_l	arm_add_l	arm_rot_l	elbow_flex_l	pro_sup_l	wrist_flex_l	wrist_dev_l
      7.50000000	    -17.02052520	      3.80583809	     -6.19776694	      0.19237324	      1.04543599	     -0.23740098	      0.00000000	      0.50000000	      0.00000000	      0.25000000	     54.52043908	     -4.26666509	      3.45979708	     45.77034448	      0.79884321	     -9.45906796	     -6.01355395	      0.00000000	      0.00000000	     69.16504491	     -6.06992835	     -2.35703756	    109.23384754	      1.90649029	    -12.68550718	    -17.04614332	      0.00000000	      0.00000000	    -65.67711381	     -2.18175829	     -7.90352179	     80.10597302	    -14.14357503	     38.86406654	     85.31093195	     51.09752707	      0.00000000	      0.00000000	     58.49568237	    -33.04862249	      5.11316742	    101.40234013	     51.06023474	      0.00000000	      0.00000000
      7.50500000	    -16.91743277	      3.99105286	     -5.87266597	      0.19246025	      1.04547517	     -0.23671984	      0.00000000	      0.50000000	      0.00000000	      0.25000000	     52.90199334	     -4.67330219	      3.30843636	     43.73193362	      0.76326623	    -11.02038221	     -6.33321619	      0.00000000	      0.00000000	     70.56098561	     -5.85155350	     -2.12484485	    110.80575142	      1.93392519	    -12.08669851	    -16.88360283	      0.00000000	      0.00000000	    -65.64733333	     -2.41264615	     -7.59975656	     79.41525610	    -15.29215016	     38.08507931	     86.30557544	     51.31387127	      0.00000000	      0.00000000	     59.83062489	    -32.82490713	      7.14467201	    100.30175807	     51.22467117	      0.00000000	      0.00000000
      7.51000000	    -16.93605532	      4.10999194	     -5.40737708	      0.19244967	      1.04584481	     -0.23626125	      0.00000000	      0.50000000	      0.00000000	      0.25000000	     51.43673733	     -5.17270021	      2.84548938	     41.76728100	      0.72897657	    -12.73424689	     -6.16463474	      0.00000000	      0.00000000	     72.11688408	     -5.48149457	     -1.78814791	    112.19685007	      1.95820444	    -11.72210530	    -17.08374666	      0.00000000	      0.00000000	    -65.58982312	     -2.32940334	     -7.91520687	     79.16884771	    -15.38585344	     37.92068802	     86.40172727	     51.33281781	      0.00000000	      0.00000000	     60.08190784	    -32.92274978	      7.36578321	    100.19897338	     51.25124053	      0.00000000	      0.00000000
      7.51500000	    -17.07705125	      4.18426129	     -4.83350522	      0.19217042	      1.04619444	     -0.23610599	      0.00000000	      0.50000000	      0.00000000	      0.25000000	     50.18194126	     -5.70588937	      2.28338172	     39.97396855	      0.69767737	    -14.58163306	     -6.11664178	      0.00000000	      0.00000000	     73.84639926	     -5.03347111	     -1.38948107	    113.49286924	      1.98082425	    -11.25476471	    -17.03777604	      0.00000000	      0.00000000	    -65.44026461	     -2.15813041	     -8.20079770	     78.93177856	    -15.52193583	     37.61421432	     86.41376449	     51.32373013	      0.00000000	      0.00000000	     60.47726285	    -33.06031096	      7.72290557	    100.09108827	     51.28828271	      0.00000000	      0.00000000
      7.52000000	    -17.32248880	      4.49152335	     -4.29666975	      0.19172472	      1.04659055	     -0.23615271	      0.00000000	      0.50000000	      0.00000000	      0.25000000	     49.22522872	     -6.42784319	      1.87181645	     38.42843323	      0.67070269	    -16.16880959	     -5.57486716	      0.00000000	      0.00000000	     75.59890200	     -4.46207693	     -1.31148256	    114.61158719	      2.00034956	    -10.51046756	    -17.38876690	      0.00000000	      0.00000000	    -65.21636553	     -2.16647956	     -8.78779570	     78.77697311	    -15.71129836	     37.41829133	     86.31379194	     51.29171387	      0.00000000	      0.00000000	     60.81800780	    -33.08807519	      7.89834792	    100.06668360	     51.30015412	      0.00000000	      0.00000000
      7.52500000	    -17.49868921	      4.27714917	     -3.46023723	      0.19141395	      1.04770104	     -0.23574063	      0.00000000	      0.50000000	      0.00000000	      0.25000000	     47.88617010	     -6.83615254	      0.89478807	     36.62377543	      0.63920547	    -18.42539794	     -6.03974281	      0.00000000	      0.00000000	     77.32409021	     -3.92923709	     -0.63271425	    115.56571448	      2.01700222	    -10.08928670	    -17.37955462	      0.00000000	      0.00000000	    -65.14663239	     -1.69114461	     -8.97604843	     78.58030371	    -15.63271860	     36.87155626	     86.21226825	     51.25144586	      0.00000000	      0.00000000	     61.46406619	    -33.40137826	      8.76340224	     99.84471021	     51.37663610	      0.00000000	      0.00000000
      7.53000000	    -17.86082391	      4.47166504	     -2.78892128	      0.19087790	      1.04855155	     -0.23571245	      0.00000000	      0.50000000	      0.00000000	      0.25000000	     47.04096534	     -7.51341157	      0.29519361	     35.17015185	      0.61383495	    -20.24097603	     -5.49712937	      0.00000000	      0.00000000	     79.12385418	     -3.27127510	     -0.49885133	    116.33198675	      2.03037619	     -9.06817212	    -17.70845474	      0.00000000	      0.00000000	    -64.87282213	     -1.57667555	     -9.53333089	     78.49490979	    -15.76441380	     36.63591551	     86.09104120	     51.21985071	      0.00000000	      0.00000000	     61.93291483	    -33.45316661	      9.01782859	     99.82382616	     51.40228987	      0.00000000	      0.00000000
      7.53500000	    -18.19900021	      4.59840307	     -2.04758889	      0.19021641	      1.04964308	     -0.23572691	      0.00000000	      0.50000000	      0.00000000	      0.25000000	     46.17666726	     -8.17902066	     -0.46918860	     33.76806547	      0.58936392	    -22.19082250	     -5.09609276	      0.00000000	      0.00000000	     80.88653680	     -2.57514719	     -0.29620187	    116.91529488	      2.04055684	     -8.95420077	    -17.41742309	      0.00000000	      0.00000000	    -64.68779533	     -1.33179932	    -10.05256421	     78.47785284	    -15.77817473	     36.37180772	     85.97727196	     51.18441113	      0.00000000	      0.00000000	     62.44739963	    -33.50070152	      9.37096235	     99.80641746	     51.43679138	      0.00000000	      0.00000000
